<svg width="14" height="15" viewBox="0 0 14 15" fill="none" xmlns="http://www.w3.org/2000/svg">
<path d="M6.99999 14.136C6.60399 14.136 6.29799 14.028 6.08199 13.812C5.86599 13.578 5.75799 13.263 5.75799 12.867V8.439H1.41099C1.03299 8.439 0.735994 8.34 0.519994 8.142C0.303994 7.926 0.195994 7.629 0.195994 7.251C0.195994 6.873 0.303994 6.585 0.519994 6.387C0.735994 6.171 1.03299 6.063 1.41099 6.063H5.75799V1.77C5.75799 1.374 5.86599 1.068 6.08199 0.851999C6.29799 0.635999 6.61299 0.528 7.02699 0.528C7.42299 0.528 7.71999 0.635999 7.91799 0.851999C8.13399 1.068 8.24199 1.374 8.24199 1.77V6.063H12.589C12.985 6.063 13.282 6.171 13.48 6.387C13.696 6.585 13.804 6.873 13.804 7.251C13.804 7.629 13.696 7.926 13.48 8.142C13.282 8.34 12.985 8.439 12.589 8.439H8.24199V12.867C8.24199 13.263 8.13399 13.578 7.91799 13.812C7.71999 14.028 7.41399 14.136 6.99999 14.136Z" fill="white"/>
</svg>
