<svg width="26" height="24" viewBox="0 0 26 24" fill="none" xmlns="http://www.w3.org/2000/svg">
<path d="M23.339 9.50056H8.29304L14.129 3.91068C14.5321 3.47923 14.7564 2.91052 14.7564 2.31972C14.7564 1.72893 14.5321 1.16021 14.129 0.728768C13.9345 0.520374 13.6993 0.354225 13.438 0.240631C13.1767 0.127036 12.8949 0.0684204 12.61 0.0684204C12.3252 0.0684204 12.0433 0.127036 11.782 0.240631C11.5207 0.354225 11.2855 0.520374 11.091 0.728768L1.37404 10.1624C1.16678 10.3682 1.00372 10.6142 0.894867 10.8854C0.786015 11.1566 0.733668 11.4471 0.74104 11.7393V11.7673C0.733668 12.0595 0.786015 12.3501 0.894867 12.6213C1.00372 12.8925 1.16678 13.1385 1.37404 13.3443L11.084 22.7779C11.2785 22.9861 11.5137 23.1521 11.7749 23.2656C12.0361 23.3791 12.3178 23.4377 12.6025 23.4377C12.8873 23.4377 13.169 23.3791 13.4302 23.2656C13.6914 23.1521 13.9266 22.9861 14.121 22.7779C14.5241 22.3464 14.7484 21.7777 14.7484 21.1869C14.7484 20.5961 14.5241 20.0274 14.121 19.596L8.28604 14.0061H23.332C23.6211 13.9999 23.9062 13.9366 24.1708 13.82C24.4355 13.7034 24.6746 13.5356 24.8745 13.3264C25.0744 13.1172 25.2311 12.8705 25.3357 12.6006C25.4403 12.3307 25.4907 12.0428 25.484 11.7533C25.4936 11.4637 25.4455 11.1751 25.3424 10.9043C25.2393 10.6335 25.0834 10.386 24.8837 10.1763C24.684 9.96656 24.4445 9.79878 24.1793 9.68275C23.9141 9.56673 23.6284 9.50479 23.339 9.50056Z" fill="white"/>
</svg>
