<svg width="38" height="37" viewBox="0 0 38 37" fill="none" xmlns="http://www.w3.org/2000/svg">
<path d="M35.885 18.2752C35.885 21.5017 34.8912 24.6557 33.0293 27.3384C31.1674 30.0211 28.521 32.1121 25.4247 33.3468C22.3285 34.5815 18.9215 34.9045 15.6345 34.2751C12.3476 33.6456 9.32835 32.0919 6.95859 29.8105C4.58884 27.529 2.97501 24.6223 2.3212 21.4578C1.66739 18.2933 2.00295 15.0133 3.28545 12.0324C4.56795 9.05153 6.73979 6.50373 9.52633 4.7112C12.3129 2.91867 15.5889 1.96191 18.9403 1.96191C21.1655 1.96191 23.3689 2.38387 25.4247 3.20369C27.4806 4.02351 29.3485 5.22514 30.922 6.73997C32.4954 8.25481 33.7436 10.0532 34.5951 12.0324C35.4467 14.0116 35.885 16.1329 35.885 18.2752V18.2752Z" stroke="#979797" stroke-width="3" stroke-linecap="round" stroke-linejoin="round"/>
<path d="M18.9403 11.7499V18.2753" stroke="#979797" stroke-width="3" stroke-linecap="round" stroke-linejoin="round"/>
</svg>
