<svg width="8" height="9" viewBox="0 0 8 9" fill="none" xmlns="http://www.w3.org/2000/svg">
<path d="M1.248 8.096C1.10933 8.096 0.986667 8.05333 0.88 7.968C0.773333 7.88267 0.714667 7.77067 0.704 7.632C0.704 7.48267 0.773333 7.328 0.912 7.168L3.712 3.648V4.32L1.088 1.04C0.949333 0.869333 0.88 0.714666 0.88 0.576C0.890667 0.437333 0.949333 0.325333 1.056 0.24C1.16267 0.154666 1.28533 0.112 1.424 0.112C1.584 0.112 1.71733 0.144 1.824 0.208C1.94133 0.261333 2.048 0.352 2.144 0.48L4.432 3.376H3.984L6.288 0.48C6.384 0.352 6.48533 0.261333 6.592 0.208C6.69867 0.144 6.832 0.112 6.992 0.112C7.14133 0.112 7.264 0.154666 7.36 0.24C7.46667 0.325333 7.52 0.442666 7.52 0.592C7.53067 0.730666 7.46667 0.885333 7.328 1.056L4.72 4.288V3.696L7.52 7.168C7.648 7.328 7.70667 7.48267 7.696 7.632C7.696 7.77067 7.64267 7.88267 7.536 7.968C7.42933 8.05333 7.30133 8.096 7.152 8.096C7.00267 8.096 6.86933 8.064 6.752 8C6.64533 7.94667 6.53867 7.856 6.432 7.728L3.968 4.624H4.432L1.968 7.728C1.872 7.84533 1.76533 7.936 1.648 8C1.54133 8.064 1.408 8.096 1.248 8.096Z" fill="#3F454E"/>
</svg>
